<mxfile host="app.diagrams.net" agent="Mozilla/5.0 (Macintosh; Intel Mac OS X 10_15_7) AppleWebKit/537.36 (KHTML, like Gecko) Chrome/128.0.0.0 Safari/537.36" version="24.7.13" pages="2">
  <diagram id="9Ol5aUBI6fZ-lyk_kM6U" name="Page-2">
    <mxGraphModel dx="1837" dy="831" grid="1" gridSize="10" guides="1" tooltips="1" connect="1" arrows="1" fold="1" page="1" pageScale="1" pageWidth="1169" pageHeight="827" math="0" shadow="0">
      <root>
        <mxCell id="0" />
        <mxCell id="1" parent="0" />
        <mxCell id="OSHusnXTL472bYSLmm0P-1" value="" style="shape=cylinder3;whiteSpace=wrap;html=1;boundedLbl=1;backgroundOutline=1;size=15;" vertex="1" parent="1">
          <mxGeometry x="140" y="200" width="60" height="80" as="geometry" />
        </mxCell>
        <mxCell id="OSHusnXTL472bYSLmm0P-2" value="&lt;font style=&quot;font-size: 15px;&quot;&gt;&lt;b&gt;Marvel Data Source&lt;/b&gt;&lt;/font&gt;" style="text;html=1;align=center;verticalAlign=middle;resizable=0;points=[];autosize=1;strokeColor=none;fillColor=none;" vertex="1" parent="1">
          <mxGeometry x="90" y="280" width="160" height="30" as="geometry" />
        </mxCell>
        <mxCell id="OSHusnXTL472bYSLmm0P-8" value="" style="edgeStyle=orthogonalEdgeStyle;rounded=0;orthogonalLoop=1;jettySize=auto;html=1;exitX=1;exitY=0.5;exitDx=0;exitDy=0;exitPerimeter=0;" edge="1" parent="1" source="OSHusnXTL472bYSLmm0P-1" target="OSHusnXTL472bYSLmm0P-7">
          <mxGeometry relative="1" as="geometry">
            <mxPoint x="245" y="240" as="sourcePoint" />
          </mxGeometry>
        </mxCell>
        <mxCell id="OSHusnXTL472bYSLmm0P-18" value="" style="edgeStyle=orthogonalEdgeStyle;rounded=0;orthogonalLoop=1;jettySize=auto;html=1;" edge="1" parent="1" source="OSHusnXTL472bYSLmm0P-7" target="OSHusnXTL472bYSLmm0P-17">
          <mxGeometry relative="1" as="geometry" />
        </mxCell>
        <mxCell id="OSHusnXTL472bYSLmm0P-25" value="" style="rounded=0;whiteSpace=wrap;html=1;fillColor=none;" vertex="1" parent="1">
          <mxGeometry x="295" y="160" width="326" height="210" as="geometry" />
        </mxCell>
        <mxCell id="OSHusnXTL472bYSLmm0P-7" value="Data Extraction" style="whiteSpace=wrap;html=1;" vertex="1" parent="1">
          <mxGeometry x="325" y="214.38" width="100" height="51.25" as="geometry" />
        </mxCell>
        <mxCell id="OSHusnXTL472bYSLmm0P-12" value="&lt;b style=&quot;font-size: 15px;&quot;&gt;Simple &lt;br&gt;Dashboard&lt;/b&gt;" style="whiteSpace=wrap;html=1;" vertex="1" parent="1">
          <mxGeometry x="767" y="160" width="133" height="210" as="geometry" />
        </mxCell>
        <mxCell id="OSHusnXTL472bYSLmm0P-19" style="edgeStyle=orthogonalEdgeStyle;rounded=0;orthogonalLoop=1;jettySize=auto;html=1;entryX=0;entryY=0.5;entryDx=0;entryDy=0;entryPerimeter=0;" edge="1" parent="1" source="OSHusnXTL472bYSLmm0P-17" target="OSHusnXTL472bYSLmm0P-24">
          <mxGeometry relative="1" as="geometry" />
        </mxCell>
        <mxCell id="OSHusnXTL472bYSLmm0P-17" value="Preprocessing" style="whiteSpace=wrap;html=1;" vertex="1" parent="1">
          <mxGeometry x="475" y="214.38" width="120" height="52.5" as="geometry" />
        </mxCell>
        <mxCell id="OSHusnXTL472bYSLmm0P-29" style="edgeStyle=orthogonalEdgeStyle;rounded=0;orthogonalLoop=1;jettySize=auto;html=1;entryX=-0.003;entryY=0.388;entryDx=0;entryDy=0;entryPerimeter=0;" edge="1" parent="1" source="OSHusnXTL472bYSLmm0P-24" target="OSHusnXTL472bYSLmm0P-12">
          <mxGeometry relative="1" as="geometry" />
        </mxCell>
        <mxCell id="OSHusnXTL472bYSLmm0P-24" value=".csv" style="strokeWidth=2;html=1;shape=mxgraph.flowchart.document2;whiteSpace=wrap;size=0.25;" vertex="1" parent="1">
          <mxGeometry x="665" y="210.63" width="50" height="60" as="geometry" />
        </mxCell>
        <mxCell id="OSHusnXTL472bYSLmm0P-26" value="&lt;div&gt;Raw data&lt;/div&gt;.json" style="strokeWidth=2;html=1;shape=mxgraph.flowchart.document2;whiteSpace=wrap;size=0.25;" vertex="1" parent="1">
          <mxGeometry x="342.5" y="290" width="65" height="70" as="geometry" />
        </mxCell>
        <mxCell id="OSHusnXTL472bYSLmm0P-27" style="edgeStyle=orthogonalEdgeStyle;rounded=0;orthogonalLoop=1;jettySize=auto;html=1;entryX=0.5;entryY=0;entryDx=0;entryDy=0;entryPerimeter=0;" edge="1" parent="1" source="OSHusnXTL472bYSLmm0P-7" target="OSHusnXTL472bYSLmm0P-26">
          <mxGeometry relative="1" as="geometry" />
        </mxCell>
        <mxCell id="OSHusnXTL472bYSLmm0P-28" value="&amp;lt; API &amp;gt;" style="text;html=1;align=center;verticalAlign=middle;resizable=0;points=[];autosize=1;strokeColor=none;fillColor=none;" vertex="1" parent="1">
          <mxGeometry x="215" y="210.63" width="60" height="30" as="geometry" />
        </mxCell>
        <mxCell id="OSHusnXTL472bYSLmm0P-30" value="Marvel Data Extractor&lt;br&gt;&lt;font face=&quot;Courier New&quot;&gt;extractor.py&lt;/font&gt;" style="text;html=1;align=left;verticalAlign=middle;resizable=0;points=[];autosize=1;strokeColor=none;fillColor=none;" vertex="1" parent="1">
          <mxGeometry x="305" y="160" width="140" height="40" as="geometry" />
        </mxCell>
        <mxCell id="OSHusnXTL472bYSLmm0P-31" value="Dashboard&lt;div&gt;&lt;font face=&quot;Courier New&quot;&gt;dashboard.py&lt;/font&gt;&lt;/div&gt;" style="text;html=1;align=left;verticalAlign=middle;resizable=0;points=[];autosize=1;strokeColor=none;fillColor=none;" vertex="1" parent="1">
          <mxGeometry x="780" y="165.63" width="110" height="40" as="geometry" />
        </mxCell>
        <mxCell id="OSHusnXTL472bYSLmm0P-32" value="Browser" style="image;aspect=fixed;html=1;points=[];align=center;fontSize=12;image=img/lib/azure2/general/Browser.svg;" vertex="1" parent="1">
          <mxGeometry x="960" y="209" width="87.5" height="70" as="geometry" />
        </mxCell>
        <mxCell id="OSHusnXTL472bYSLmm0P-33" style="edgeStyle=orthogonalEdgeStyle;rounded=0;orthogonalLoop=1;jettySize=auto;html=1;entryX=0.01;entryY=0.497;entryDx=0;entryDy=0;entryPerimeter=0;exitX=0.992;exitY=0.398;exitDx=0;exitDy=0;exitPerimeter=0;" edge="1" parent="1" source="OSHusnXTL472bYSLmm0P-12" target="OSHusnXTL472bYSLmm0P-32">
          <mxGeometry relative="1" as="geometry" />
        </mxCell>
        <mxCell id="OSHusnXTL472bYSLmm0P-34" value="" style="shape=image;verticalLabelPosition=bottom;labelBackgroundColor=default;verticalAlign=top;aspect=fixed;imageAspect=0;image=https://dash.plotly.com/assets/images/plotly_logo_dark.png;imageBackground=none;" vertex="1" parent="1">
          <mxGeometry x="804.05" y="335.62" width="58.14" height="19.38" as="geometry" />
        </mxCell>
        <mxCell id="OSHusnXTL472bYSLmm0P-36" value="" style="shape=image;verticalLabelPosition=bottom;labelBackgroundColor=default;verticalAlign=top;aspect=fixed;imageAspect=0;image=https://dash.plotly.com/assets/images/language_icons/python_50px.svg;" vertex="1" parent="1">
          <mxGeometry x="860.62" y="330.62" width="29.38" height="29.38" as="geometry" />
        </mxCell>
        <mxCell id="OSHusnXTL472bYSLmm0P-37" value="" style="shape=image;verticalLabelPosition=bottom;labelBackgroundColor=default;verticalAlign=top;aspect=fixed;imageAspect=0;image=https://dash.plotly.com/assets/images/language_icons/python_50px.svg;" vertex="1" parent="1">
          <mxGeometry x="565" y="310.62" width="49.38" height="49.38" as="geometry" />
        </mxCell>
        <mxCell id="JEEFn4s-ZgktFQL7GDDc-13" value="" style="group" vertex="1" connectable="0" parent="1">
          <mxGeometry x="100" y="440" width="740" height="470" as="geometry" />
        </mxCell>
        <mxCell id="JEEFn4s-ZgktFQL7GDDc-12" value="" style="shape=note;whiteSpace=wrap;html=1;backgroundOutline=1;darkOpacity=0.05;" vertex="1" parent="JEEFn4s-ZgktFQL7GDDc-13">
          <mxGeometry width="740" height="470" as="geometry" />
        </mxCell>
        <mxCell id="JEEFn4s-ZgktFQL7GDDc-1" value="" style="edgeStyle=orthogonalEdgeStyle;rounded=0;orthogonalLoop=1;jettySize=auto;html=1;exitX=1.006;exitY=0.645;exitDx=0;exitDy=0;exitPerimeter=0;" edge="1" parent="JEEFn4s-ZgktFQL7GDDc-13" source="JEEFn4s-ZgktFQL7GDDc-4" target="JEEFn4s-ZgktFQL7GDDc-6">
          <mxGeometry relative="1" as="geometry" />
        </mxCell>
        <mxCell id="JEEFn4s-ZgktFQL7GDDc-2" value="" style="edgeStyle=orthogonalEdgeStyle;rounded=0;orthogonalLoop=1;jettySize=auto;html=1;exitX=1;exitY=0.5;exitDx=0;exitDy=0;" edge="1" parent="JEEFn4s-ZgktFQL7GDDc-13" source="JEEFn4s-ZgktFQL7GDDc-4" target="JEEFn4s-ZgktFQL7GDDc-10">
          <mxGeometry relative="1" as="geometry" />
        </mxCell>
        <mxCell id="JEEFn4s-ZgktFQL7GDDc-3" value="(Collection)&lt;br&gt;Character" style="swimlane;childLayout=stackLayout;horizontal=1;startSize=50;horizontalStack=0;rounded=1;fontSize=14;fontStyle=0;strokeWidth=2;resizeParent=0;resizeLast=1;shadow=0;dashed=0;align=center;arcSize=4;whiteSpace=wrap;html=1;" vertex="1" parent="JEEFn4s-ZgktFQL7GDDc-13">
          <mxGeometry x="70" y="100" width="160" height="160" as="geometry" />
        </mxCell>
        <mxCell id="JEEFn4s-ZgktFQL7GDDc-4" value="+id&lt;br&gt;+name&lt;br&gt;+description&lt;div&gt;+thumbnail {} : Thumbnail&lt;/div&gt;&lt;div&gt;&lt;font color=&quot;#ff3333&quot;&gt;+comics {} : ComicList&lt;br&gt;&lt;/font&gt;&lt;div&gt;&lt;br&gt;&lt;/div&gt;&lt;/div&gt;" style="align=left;strokeColor=none;fillColor=none;spacingLeft=4;fontSize=12;verticalAlign=top;resizable=0;rotatable=0;part=1;html=1;" vertex="1" parent="JEEFn4s-ZgktFQL7GDDc-3">
          <mxGeometry y="50" width="160" height="110" as="geometry" />
        </mxCell>
        <mxCell id="JEEFn4s-ZgktFQL7GDDc-5" value="" style="edgeStyle=orthogonalEdgeStyle;rounded=0;orthogonalLoop=1;jettySize=auto;html=1;" edge="1" parent="JEEFn4s-ZgktFQL7GDDc-13" source="JEEFn4s-ZgktFQL7GDDc-6" target="JEEFn4s-ZgktFQL7GDDc-8">
          <mxGeometry relative="1" as="geometry" />
        </mxCell>
        <mxCell id="JEEFn4s-ZgktFQL7GDDc-6" value="(Collection)&lt;br&gt;ComicList" style="swimlane;childLayout=stackLayout;horizontal=1;startSize=50;horizontalStack=0;rounded=1;fontSize=14;fontStyle=0;strokeWidth=2;resizeParent=0;resizeLast=1;shadow=0;dashed=0;align=center;arcSize=4;whiteSpace=wrap;html=1;" vertex="1" parent="JEEFn4s-ZgktFQL7GDDc-13">
          <mxGeometry x="300" y="255" width="160" height="160" as="geometry" />
        </mxCell>
        <mxCell id="JEEFn4s-ZgktFQL7GDDc-7" value="&lt;font color=&quot;#ff3333&quot;&gt;+available : int&lt;br&gt;&lt;/font&gt;+collectionURI : str&lt;br&gt;+items [] : ComicSummary&lt;div&gt;+returned : int&lt;/div&gt;&lt;div&gt;&lt;div&gt;&lt;br&gt;&lt;/div&gt;&lt;/div&gt;" style="align=left;strokeColor=none;fillColor=none;spacingLeft=4;fontSize=12;verticalAlign=top;resizable=0;rotatable=0;part=1;html=1;" vertex="1" parent="JEEFn4s-ZgktFQL7GDDc-6">
          <mxGeometry y="50" width="160" height="110" as="geometry" />
        </mxCell>
        <mxCell id="JEEFn4s-ZgktFQL7GDDc-8" value="(Document) ComicSummary" style="swimlane;childLayout=stackLayout;horizontal=1;startSize=50;horizontalStack=0;rounded=1;fontSize=14;fontStyle=0;strokeWidth=2;resizeParent=0;resizeLast=1;shadow=0;dashed=0;align=center;arcSize=4;whiteSpace=wrap;html=1;" vertex="1" parent="JEEFn4s-ZgktFQL7GDDc-13">
          <mxGeometry x="540" y="282.5" width="160" height="105" as="geometry" />
        </mxCell>
        <mxCell id="JEEFn4s-ZgktFQL7GDDc-9" value="+resourceURI&lt;br&gt;+name" style="align=left;strokeColor=none;fillColor=none;spacingLeft=4;fontSize=12;verticalAlign=top;resizable=0;rotatable=0;part=1;html=1;" vertex="1" parent="JEEFn4s-ZgktFQL7GDDc-8">
          <mxGeometry y="50" width="160" height="55" as="geometry" />
        </mxCell>
        <mxCell id="JEEFn4s-ZgktFQL7GDDc-10" value="(Document)&lt;br&gt;Thumbnail" style="swimlane;childLayout=stackLayout;horizontal=1;startSize=50;horizontalStack=0;rounded=1;fontSize=14;fontStyle=0;strokeWidth=2;resizeParent=0;resizeLast=1;shadow=0;dashed=0;align=center;arcSize=4;whiteSpace=wrap;html=1;" vertex="1" parent="JEEFn4s-ZgktFQL7GDDc-13">
          <mxGeometry x="330" y="50" width="160" height="100" as="geometry" />
        </mxCell>
        <mxCell id="JEEFn4s-ZgktFQL7GDDc-11" value="+path&lt;br&gt;+extension&lt;div&gt;&lt;div&gt;&lt;br&gt;&lt;/div&gt;&lt;/div&gt;" style="align=left;strokeColor=none;fillColor=none;spacingLeft=4;fontSize=12;verticalAlign=top;resizable=0;rotatable=0;part=1;html=1;" vertex="1" parent="JEEFn4s-ZgktFQL7GDDc-10">
          <mxGeometry y="50" width="160" height="50" as="geometry" />
        </mxCell>
        <mxCell id="OSHusnXTL472bYSLmm0P-9" value="&lt;div style=&quot;color: rgb(212, 212, 212); font-family: Menlo, Monaco, &amp;quot;Courier New&amp;quot;, monospace; line-height: 18px; white-space-collapse: preserve;&quot;&gt;&lt;span style=&quot;color: #ce9178;&quot;&gt;http://gateway.marvel.com/v1/public/&lt;/span&gt;&lt;/div&gt;" style="text;html=1;align=center;verticalAlign=middle;resizable=0;points=[];autosize=1;strokeColor=none;fillColor=none;labelBackgroundColor=default;" vertex="1" parent="JEEFn4s-ZgktFQL7GDDc-13">
          <mxGeometry x="10" y="30" width="280" height="30" as="geometry" />
        </mxCell>
        <mxCell id="f3qinroSH5ih9pkfO1Uu-3" value="Schema" style="text;html=1;align=center;verticalAlign=middle;resizable=0;points=[];autosize=1;strokeColor=none;fillColor=none;" vertex="1" parent="JEEFn4s-ZgktFQL7GDDc-13">
          <mxGeometry x="10" y="10" width="70" height="30" as="geometry" />
        </mxCell>
        <mxCell id="JEEFn4s-ZgktFQL7GDDc-14" style="edgeStyle=orthogonalEdgeStyle;rounded=0;orthogonalLoop=1;jettySize=auto;html=1;entryX=0;entryY=0.5;entryDx=0;entryDy=0;entryPerimeter=0;curved=1;exitX=0;exitY=0.5;exitDx=0;exitDy=0;exitPerimeter=0;dashed=1;dashPattern=12 12;" edge="1" parent="1" source="OSHusnXTL472bYSLmm0P-1" target="JEEFn4s-ZgktFQL7GDDc-12">
          <mxGeometry relative="1" as="geometry">
            <Array as="points">
              <mxPoint x="30" y="240" />
              <mxPoint x="30" y="675" />
            </Array>
          </mxGeometry>
        </mxCell>
        <mxCell id="f3qinroSH5ih9pkfO1Uu-2" value="&lt;h1 style=&quot;margin-top: 0px;&quot;&gt;Marvel Data Extractor Project&lt;/h1&gt;&lt;div&gt;The following diagram shows the main components used to build a pipeline that extracts data from Marvel sources and display them in a simple dashboard.&lt;/div&gt;&lt;div&gt;&lt;br&gt;&lt;/div&gt;&lt;div&gt;The dashboard shows a table with the ID, character name, a thumbnail image, and the number of comics in which the character has appeared in.&lt;/div&gt;" style="text;html=1;whiteSpace=wrap;overflow=hidden;rounded=0;" vertex="1" parent="1">
          <mxGeometry x="40" y="10" width="470" height="130" as="geometry" />
        </mxCell>
      </root>
    </mxGraphModel>
  </diagram>
  <diagram name="Schema" id="e56a1550-8fbb-45ad-956c-1786394a9013">
    <mxGraphModel dx="1194" dy="540" grid="1" gridSize="10" guides="1" tooltips="1" connect="1" arrows="1" fold="1" page="1" pageScale="1" pageWidth="1100" pageHeight="850" background="none" math="0" shadow="0">
      <root>
        <mxCell id="0" />
        <mxCell id="1" parent="0" />
        <mxCell id="OdP9M_-ECtspS7WG8TOW-9" value="" style="edgeStyle=orthogonalEdgeStyle;rounded=0;orthogonalLoop=1;jettySize=auto;html=1;exitX=1.006;exitY=0.645;exitDx=0;exitDy=0;exitPerimeter=0;" parent="1" source="OdP9M_-ECtspS7WG8TOW-2" target="OdP9M_-ECtspS7WG8TOW-7" edge="1">
          <mxGeometry relative="1" as="geometry" />
        </mxCell>
        <mxCell id="OdP9M_-ECtspS7WG8TOW-17" value="" style="edgeStyle=orthogonalEdgeStyle;rounded=0;orthogonalLoop=1;jettySize=auto;html=1;exitX=1;exitY=0.5;exitDx=0;exitDy=0;" parent="1" source="OdP9M_-ECtspS7WG8TOW-2" target="OdP9M_-ECtspS7WG8TOW-15" edge="1">
          <mxGeometry relative="1" as="geometry" />
        </mxCell>
        <mxCell id="OdP9M_-ECtspS7WG8TOW-1" value="(Collection)&lt;br&gt;Character" style="swimlane;childLayout=stackLayout;horizontal=1;startSize=50;horizontalStack=0;rounded=1;fontSize=14;fontStyle=0;strokeWidth=2;resizeParent=0;resizeLast=1;shadow=0;dashed=0;align=center;arcSize=4;whiteSpace=wrap;html=1;" parent="1" vertex="1">
          <mxGeometry x="310" y="110" width="160" height="160" as="geometry" />
        </mxCell>
        <mxCell id="OdP9M_-ECtspS7WG8TOW-2" value="+id&lt;br&gt;+name&lt;br&gt;+description&lt;div&gt;+thumbnail {} : Thumbnail&lt;/div&gt;&lt;div&gt;+comics {} : ComicList&lt;br&gt;&lt;div&gt;&lt;br&gt;&lt;/div&gt;&lt;/div&gt;" style="align=left;strokeColor=none;fillColor=none;spacingLeft=4;fontSize=12;verticalAlign=top;resizable=0;rotatable=0;part=1;html=1;" parent="OdP9M_-ECtspS7WG8TOW-1" vertex="1">
          <mxGeometry y="50" width="160" height="110" as="geometry" />
        </mxCell>
        <mxCell id="OdP9M_-ECtspS7WG8TOW-12" value="" style="edgeStyle=orthogonalEdgeStyle;rounded=0;orthogonalLoop=1;jettySize=auto;html=1;" parent="1" source="OdP9M_-ECtspS7WG8TOW-7" target="OdP9M_-ECtspS7WG8TOW-10" edge="1">
          <mxGeometry relative="1" as="geometry" />
        </mxCell>
        <mxCell id="OdP9M_-ECtspS7WG8TOW-7" value="(Collection)&lt;br&gt;ComicList" style="swimlane;childLayout=stackLayout;horizontal=1;startSize=50;horizontalStack=0;rounded=1;fontSize=14;fontStyle=0;strokeWidth=2;resizeParent=0;resizeLast=1;shadow=0;dashed=0;align=center;arcSize=4;whiteSpace=wrap;html=1;" parent="1" vertex="1">
          <mxGeometry x="540" y="265" width="160" height="160" as="geometry" />
        </mxCell>
        <mxCell id="OdP9M_-ECtspS7WG8TOW-8" value="+available : int&lt;br&gt;+collectionURI : str&lt;br&gt;+items [] : ComicSummary&lt;div&gt;+returned : int&lt;/div&gt;&lt;div&gt;&lt;div&gt;&lt;br&gt;&lt;/div&gt;&lt;/div&gt;" style="align=left;strokeColor=none;fillColor=none;spacingLeft=4;fontSize=12;verticalAlign=top;resizable=0;rotatable=0;part=1;html=1;" parent="OdP9M_-ECtspS7WG8TOW-7" vertex="1">
          <mxGeometry y="50" width="160" height="110" as="geometry" />
        </mxCell>
        <mxCell id="OdP9M_-ECtspS7WG8TOW-10" value="(Document) ComicSummary" style="swimlane;childLayout=stackLayout;horizontal=1;startSize=50;horizontalStack=0;rounded=1;fontSize=14;fontStyle=0;strokeWidth=2;resizeParent=0;resizeLast=1;shadow=0;dashed=0;align=center;arcSize=4;whiteSpace=wrap;html=1;" parent="1" vertex="1">
          <mxGeometry x="780" y="292.5" width="160" height="105" as="geometry" />
        </mxCell>
        <mxCell id="OdP9M_-ECtspS7WG8TOW-11" value="+resourceURI&lt;br&gt;+name" style="align=left;strokeColor=none;fillColor=none;spacingLeft=4;fontSize=12;verticalAlign=top;resizable=0;rotatable=0;part=1;html=1;" parent="OdP9M_-ECtspS7WG8TOW-10" vertex="1">
          <mxGeometry y="50" width="160" height="55" as="geometry" />
        </mxCell>
        <mxCell id="OdP9M_-ECtspS7WG8TOW-15" value="(Document)&lt;br&gt;Thumbnail" style="swimlane;childLayout=stackLayout;horizontal=1;startSize=50;horizontalStack=0;rounded=1;fontSize=14;fontStyle=0;strokeWidth=2;resizeParent=0;resizeLast=1;shadow=0;dashed=0;align=center;arcSize=4;whiteSpace=wrap;html=1;" parent="1" vertex="1">
          <mxGeometry x="570" y="60" width="160" height="100" as="geometry" />
        </mxCell>
        <mxCell id="OdP9M_-ECtspS7WG8TOW-16" value="+path&lt;br&gt;+extension&lt;div&gt;&lt;div&gt;&lt;br&gt;&lt;/div&gt;&lt;/div&gt;" style="align=left;strokeColor=none;fillColor=none;spacingLeft=4;fontSize=12;verticalAlign=top;resizable=0;rotatable=0;part=1;html=1;" parent="OdP9M_-ECtspS7WG8TOW-15" vertex="1">
          <mxGeometry y="50" width="160" height="50" as="geometry" />
        </mxCell>
      </root>
    </mxGraphModel>
  </diagram>
</mxfile>
